<svg xmlns="http://www.w3.org/2000/svg" viewBox="0 0 48 48" role="img" aria-label="Shopee">
  <rect width="48" height="48" rx="11" fill="#EE4D2D"/>
  <path fill="#fff" d="M24 9c-4.2 0-7.6 2.6-9 6.5H11L9.5 38h29L37 15.5H33c-1.4-3.9-4.8-6.5-9-6.5zm0 3.2c2.3 0 4.3 1.3 5.2 3.3H18.8c.9-2 2.9-3.3 5.2-3.3z"/>
  <path fill="#EE4D2D" d="M17.2 22.5c0-1.4 1.1-2.5 2.5-2.5h8.6c1.4 0 2.5 1.1 2.5 2.5v.4c0 1.4-1.1 2.5-2.5 2.5h-8.6c-1.4 0-2.5-1.1-2.5-2.5v-.4z" opacity=".15"/>
  <path fill="#fff" d="M19 21.8h2.4v7.2H19zm4.8 0h2.4v7.2h-2.4zm4.8 0H31v7.2h-2.4z"/>
</svg>
